<svg xmlns="http://www.w3.org/2000/svg"  viewBox="0 0 40 40" width="80px" height="80px"><path fill="#b0c1d4" d="M10.463,37.5c-4.391,0-7.963-3.572-7.963-7.963V10.463C2.5,6.072,6.072,2.5,10.463,2.5h19.074 c4.391,0,7.963,3.572,7.963,7.963v19.074c0,4.391-3.572,7.963-7.963,7.963H10.463z M12.008,8.5c-1.934,0-3.508,1.574-3.508,3.508 v15.984c0,1.934,1.574,3.508,3.508,3.508h15.984c1.934,0,3.508-1.574,3.508-3.508V12.008c0-1.934-1.573-3.508-3.507-3.508H12.008z"/><path fill="#66798f" d="M29.537,3C33.652,3,37,6.348,37,10.463v19.074C37,33.652,33.652,37,29.537,37H10.463 C6.348,37,3,33.652,3,29.537V10.463C3,6.348,6.348,3,10.463,3H29.537 M12.008,32h15.984C30.202,32,32,30.202,32,27.992V12.008 C32,9.798,30.202,8,27.993,8H12.008C9.798,8,8,9.798,8,12.008v15.984C8,30.202,9.798,32,12.008,32 M29.537,2H10.463 C5.789,2,2,5.789,2,10.463v19.074C2,34.211,5.789,38,10.463,38h19.074C34.211,38,38,34.211,38,29.537V10.463 C38,5.789,34.211,2,29.537,2L29.537,2z M12.008,31C10.346,31,9,29.654,9,27.992V12.008C9,10.346,10.346,9,12.008,9h15.985 C29.654,9,31,10.346,31,12.008v15.984C31,29.654,29.654,31,27.992,31H12.008L12.008,31z"/><g><rect width="9" height="9" x="15.5" y="15.5" fill="#b0c1d4"/><path fill="#66798f" d="M24,16v8h-8v-8H24 M25,15H15v10h10V15L25,15z"/></g></svg>